<svg id="Layer_1" data-name="Layer 1" xmlns="http://www.w3.org/2000/svg" viewBox="0 0 284 65"><defs><style>.cls-1{fill:#65ff1f;}.cls-2{fill:#0013ff;}</style></defs><polygon class="cls-1" points="22.59 12.32 27.01 12.32 27.01 8.77 27.76 7.49 28.8 6.36 29.85 6.05 48.56 6.05 49.61 6.36 50.51 7.11 51.1 8.02 51.1 9.19 51.1 12.32 55.89 12.32 55.89 9.6 55.89 7.26 55 5.38 53.72 3.71 52 2.51 49.91 1.68 29.18 1.68 26.56 2.36 25.14 3.19 23.57 5 22.89 7 22.59 7.79 22.59 12.32"/><path class="cls-2" d="M2.84,27.41V18.58L4,16l1.42-1.66,2.1-1H69.74l2.39.6,1.43,1.21.59.68L40,36.55l-4.42-3.7-7.18-5-2.84-.38s-1.65.23-1.88.3l-2.32.91-1.27,1-1,1.58L18.48,33l-.15,1.43Z"/><polygon class="cls-2" points="2.83 30.21 18.77 37.53 19.97 39.79 21.02 41.45 22.59 43.56 24.39 46.13 26.33 48.47 28.5 51.26 29.93 52.92 31.42 54.96 33.22 57.07 35.84 60.02 37.41 61.68 8.07 61.68 5.68 60.77 3.88 59.26 2.83 57.38 2.83 30.21"/><polygon class="cls-2" points="75.5 26.36 75.5 56.09 74.9 58.21 74.15 59.87 72.58 60.77 71.83 61.23 69.89 61.68 42.65 61.68 75.5 26.36"/><polygon class="cls-1" points="40.1 57.23 82.83 14.21 40.1 43.11 26.56 31.11 25.14 30.89 24.09 31.26 23.41 31.94 22.97 33.07 22.97 34.58 22.97 35.72 23.86 37.9 25.06 39.72 40.1 57.23"/><path d="M120.94,51.44h-7.69L112,46h-7.81l-1.29,5.45H95.35L104,18.84h8.3ZM110.59,40.13q-1.66-7.27-2.49-13.84H108c-.58,4.51-1.41,9.12-2.46,13.84Z"/><path d="M131,29v2.86h.13q2.37-3.49,5.34-3.49a5.81,5.81,0,0,1,5.14,3.26c1.3,2.17,1.94,5.1,1.94,8.78a16.35,16.35,0,0,1-2,8.59q-2,3.27-5.09,3.27-3.27,0-5.34-3.76H131V60.69h-7.08V29Zm5.47,11.16q0-5.54-2.8-5.54T131,40.18q0,5.76,2.67,5.76C135.51,45.94,136.44,44,136.44,40.13Z"/><path d="M154.78,29v2.86h.12q2.37-3.49,5.35-3.49,3.19,0,5.14,3.26a17.13,17.13,0,0,1,1.94,8.78,16.45,16.45,0,0,1-2,8.59q-2,3.27-5.09,3.27c-2.18,0-4-1.25-5.35-3.76h-.12V60.69H147.7V29Zm5.47,11.16q0-5.54-2.81-5.54-2.66,0-2.66,5.59,0,5.76,2.66,5.76C159.31,45.94,160.25,44,160.25,40.13Z"/><path d="M171.7,17h7.1v34.4h-7.1Z"/><path d="M182.17,29h7L191,34.81q.93,3.07,1.61,6h.12c.38-1.87.69-3.21.93-4L196,29h7.1l-9.57,31.72h-7.08l2.88-9.55Z"/><path class="cls-1" d="M207,18.84h7.4V30.93H221V18.84h7.4v32.6H221V37.89h-6.57V51.44H207Z"/><path class="cls-1" d="M234.59,22.24a3.75,3.75,0,1,1,7.49,0A3.77,3.77,0,0,1,238.32,26a3.58,3.58,0,0,1-2.62-1.11A3.63,3.63,0,0,1,234.59,22.24Zm.19,6.73h7.11V51.44h-7.11Z"/><path class="cls-1" d="M254.27,29v3.76h.09q2.55-4.39,5.35-4.39a6.11,6.11,0,0,1,1.15.15v7a15.17,15.17,0,0,0-2.4-.22q-3.9,0-3.9,5.06V51.44h-7.08V29Z"/><path class="cls-1" d="M275.24,44.58h6q-1.71,7.56-8.55,7.56a8.08,8.08,0,0,1-6.76-3.24c-1.66-2.17-2.49-5.15-2.49-9a13.57,13.57,0,0,1,2.49-8.54,8,8,0,0,1,6.62-3.21,8.44,8.44,0,0,1,4.78,1.55,9,9,0,0,1,3.35,4.12,24.25,24.25,0,0,1,1.17,8.08H270c.1,3.34,1,5,2.78,5a2.3,2.3,0,0,0,1.61-.66A2.79,2.79,0,0,0,275.24,44.58Zm-5.15-6.5h5.15a8.55,8.55,0,0,0-.66-3.5,2,2,0,0,0-1.86-1.14,2.13,2.13,0,0,0-2,1.1A7.61,7.61,0,0,0,270.09,38.08Z"/></svg>