<svg id="Layer_1" data-name="Layer 1" xmlns="http://www.w3.org/2000/svg" viewBox="0 0 26.6 21"><defs><style>.cls-1{fill:#65ff1f;}.cls-2{fill:#0013ff;}</style></defs><polygon class="cls-1" points="6.57 3.73 8.04 3.73 8.04 2.48 8.29 2.03 8.64 1.64 8.98 1.53 15.21 1.53 15.55 1.64 15.85 1.9 16.05 2.22 16.05 2.63 16.05 3.73 17.64 3.73 17.64 2.77 17.64 1.96 17.35 1.29 16.92 0.71 16.35 0.29 15.65 0 8.76 0 7.89 0.24 7.42 0.53 6.89 1.16 6.67 1.86 6.57 2.14 6.57 3.73"/><path class="cls-2" d="M0,9V5.92L.4,5l.47-.58.7-.35H22.25l.8.22.47.42.2.24L12.37,12.2,10.9,10.91,8.51,9.17,7.57,9s-.55.08-.63.11l-.77.32-.42.34-.32.55L5.2,11l0,.5Z"/><polygon class="cls-2" points="0 9.98 5.3 12.55 5.7 13.34 6.05 13.92 6.57 14.66 7.17 15.56 7.82 16.38 8.54 17.36 9.01 17.94 9.51 18.65 10.1 19.39 10.97 20.42 11.5 21 1.74 21 0.95 20.68 0.35 20.16 0 19.49 0 9.98"/><polygon class="cls-2" points="24.17 8.64 24.17 19.05 23.97 19.79 23.72 20.37 23.2 20.68 22.95 20.84 22.3 21 13.24 21 24.17 8.64"/><polygon class="cls-1" points="12.39 19.44 26.61 4.38 12.39 14.5 7.89 10.3 7.42 10.22 7.07 10.36 6.84 10.59 6.7 10.99 6.7 11.52 6.7 11.91 6.99 12.68 7.39 13.31 12.39 19.44"/></svg>